<svg xmlns="http://www.w3.org/2000/svg" fill="none" viewBox="0 0 96 96" id="Aws-Lake-Formation--Streamline-Svg-Logos" height="100" width="100">
  <desc>
    Aws Lake Formation Streamline Icon: https://streamlinehq.com
  </desc>
  <path fill="url(#a)" d="M95 1H1v94h94V1Z"></path>
  <path fill="#ffffff" d="M64.376 54.1228c.8965 1.0458 2.2278 1.7097 3.7094 1.7097 2.6931 0 4.8832-2.1914 4.8832-4.8845h-2.3499c0 1.3982-1.1362 2.5345-2.5333 2.5345-1.397 0-2.5344-1.1363-2.5344-2.5345h-2.3499c0 1.3982-1.1362 2.5345-2.5333 2.5345-1.3982 0-2.5344-1.1363-2.5344-2.5345h-2.35c0 1.3982-1.1373 2.5345-2.5344 2.5345-1.397 0-2.5344-1.1363-2.5344-2.5345h-2.35c0 1.3982-1.1373 2.5345-2.5332 2.5345v2.35c1.4828 0 2.8117-.6639 3.7082-1.7097.8965 1.0458 2.2278 1.7097 3.7094 1.7097 1.4828 0 2.8129-.6639 3.7094-1.7097.8953 1.0458 2.2266 1.7097 3.7094 1.7097 1.4817 0 2.8117-.6639 3.7082-1.7097Zm-1.0316-15.987h-2.3499c0 1.3971-1.1374 2.5333-2.5345 2.5333-1.397 0-2.5332-1.1362-2.5332-2.5333h-2.35c0 1.3971-1.1373 2.5333-2.5356 2.5333-1.3958 0-2.5332-1.1362-2.5332-2.5333h-2.35c0 1.3971-1.1373 2.5333-2.5332 2.5333v2.35c1.4828 0 2.8117-.6639 3.7082-1.7096.8965 1.0457 2.2266 1.7096 3.7082 1.7096 1.4829 0 2.8141-.6639 3.7106-1.7096.8953 1.0457 2.2254 1.7096 3.7082 1.7096 1.4828 0 2.8129-.6639 3.7094-1.7096.8965 1.0457 2.2266 1.7096 3.7082 1.7096v-2.35c-1.3958 0-2.5332-1.1362-2.5332-2.5333ZM44.7163 70.2344c1.4817 0 2.8118-.6638 3.7083-1.7096.8965 1.0458 2.2265 1.7096 3.7094 1.7096 1.4828 0 2.8129-.6638 3.7082-1.7096.8965 1.0458 2.2266 1.7096 3.7094 1.7096v-2.35c-1.3971 0-2.5344-1.1362-2.5344-2.5333h-2.35c0 1.3971-1.1362 2.5333-2.5332 2.5333-1.3971 0-2.5345-1.1362-2.5345-2.5333h-2.3499c0 1.3971-1.1374 2.5333-2.5333 2.5333-1.3982 0-2.5356-1.1362-2.5356-2.5333h-2.3499c0 1.3971-1.1362 2.5333-2.5333 2.5333v2.35c1.4829 0 2.8129-.6638 3.7083-1.7096.8965 1.0458 2.2277 1.7096 3.7105 1.7096ZM28.0258 24.4999h1.175v-1.175h-1.175v1.175Zm-2.3511 1.175v-3.525c0-.6498.5264-1.175 1.1761-1.175h3.525c.6485 0 1.1749.5252 1.1749 1.175v3.525c0 .6486-.5264 1.175-1.1749 1.175h-3.525c-.6497 0-1.1761-.5264-1.1761-1.175Zm9.401-5.875h1.1749v-1.175h-1.1749v1.175Zm-2.35 1.175v-3.525c0-.6498.5252-1.175 1.175-1.175h3.5249c.6486 0 1.175.5252 1.175 1.175v3.525c0 .6486-.5264 1.175-1.175 1.175h-3.5249c-.6498 0-1.175-.5264-1.175-1.175Zm3.5249 7.05h1.175v-1.175h-1.175v1.175Zm2.35-3.525c.6486 0 1.175.5252 1.175 1.175v3.525c0 .6486-.5264 1.175-1.175 1.175h-3.5249c-.6498 0-1.175-.5264-1.175-1.175v-3.525c0-.6498.5252-1.175 1.175-1.175h3.5249Zm-4.4802 9.4881c-1.1926 0-5.6293-.0458-8.9792-.6603l7.4012 11.6936c.1199.188.1833.4054.1833.6286v1.4817c.8143.195 1.5839.2009 2.35.0153v-1.497c0-.2221.0622-.4394.1809-.6286l7.7102-11.6736c-2.5861.4582-5.9936.6403-8.8464.6403Zm-13.0681-2.9469c-.0082-.0552-.0188-.1598-.0188-.215 0-.7226 0-2.921 11.6687-3.149l.0458 2.35c-3.7575.0729-6.5352.4312-8.1179.799 1.7284.403 4.9349.8119 9.4903.8119 4.3885 0 7.6667-.3948 9.4691-.8131-.6016-.1421-1.4358-.2972-2.5849-.4371l.2855-2.3323c4.2017.5123 5.916 1.316 5.916 2.7706 0 .3102-.1116.7356-.5099 1.1421l-9.2706 14.0213v2.0104c0 .4794-.2926.9106-.7367 1.0892-.9036.3631-1.8106.5441-2.7365.5441-.9141 0-1.8459-.1775-2.8082-.5311-.4618-.1704-.7684-.6099-.7684-1.1022v-2.0092l-9.0192-14.2504c-.0023-.0036-.0047-.0071-.007-.0106l-.0094-.0165-.1751-.2773.0177-.0117c-.0635-.1199-.1105-.2479-.1305-.3831Zm11.6734 22.8338v-3.525h-2.3499v2.35h-2.35c-.4559 0-.8718.2632-1.0645.6756-.1939.4136-.1304.9013.161 1.2514l5.8748 7.05c.2233.2679.5546.423.9036.423.3478 0 .6791-.1551.9024-.423l5.8748-7.05c.2914-.3501.3549-.8378.161-1.2514-.1927-.4124-.6086-.6756-1.0633-.6756h-2.35v-2.35h-2.3499v3.525c0 .6486.5252 1.175 1.1749 1.175h1.0164l-3.3663 4.0397-3.3675-4.0397h1.0175c.6486 0 1.175-.5264 1.175-1.175Zm43.4741-2.35c0 15.5488-12.651 28.2-28.2006 28.2-15.5484 0-28.1994-12.6512-28.1994-28.2 0-4.2981.9423-8.4236 2.7988-12.2623l2.1161 1.0234c-1.7013 3.5168-2.5649 7.298-2.5649 11.2389 0 14.2528 11.597 25.85 25.8494 25.85 14.2536 0 25.8507-11.5972 25.8507-25.85 0-14.2539-11.5971-25.85-25.8507-25.85-1.511 0-3.0232.1304-4.4966.3889l-.4054-2.3147c1.6062-.282 3.2559-.4242 4.902-.4242 15.5496 0 28.2006 12.6501 28.2006 28.2Z"></path>
  <defs>
    <linearGradient id="a" x1="1" x2="9401" y1="9401" y2="1" gradientUnits="userSpaceOnUse">
      <stop stop-color="#534c44"></stop>
      <stop offset="1" stop-color="#534c44"></stop>
    </linearGradient>
  </defs>
</svg>