<svg xmlns="http://www.w3.org/2000/svg" fill="none" viewBox="0 0 96 96" id="R-Lang--Streamline-Svg-Logos" height="100" width="100">
  <desc>
    R Lang Streamline Icon: https://streamlinehq.com
  </desc>
  <path fill="url(#a)" d="M55.8332 67.4108c-19.5832 0-36.2263-9.8086-36.2263-21.5586 0-11.75 14.6849-21.5246 34.2681-21.5246 24.7326 0 36.1944 9.5142 36.1944 21.2642 0 11.75-12.6338 21.819-34.2362 21.819ZM48 12.5776c-25.4582 0-47 13.7082-47 31.3332C1 60.5569 22.4114 74.376 47.87 74.376 73.3282 74.376 95 61.5358 95 43.9108S73.4582 12.5776 48 12.5776Z"></path>
  <path fill="#534c44" d="M39.9014 31.6084v51.8135h15.6579V63.2725c3.9146 0 6.2463-.8549 8.8074 3.8378 3.9146 6.7166 8.8077 16.3116 8.8077 16.3116h18.5937s-11.7434-19.19-12.722-20.1494c-1.8047-1.9193-3.9146-1.9193-6.8502-2.8788 5.8717-.9595 11.3457-3.3958 13.2488-8.6157 1.6638-4.7973 1.4681-10.9-2.0981-14.9923-3.0884-3.2382-6.2576-5.1773-14.0868-5.1773H39.9014Zm15.6579 10.7909h10.2754c2.4367 0 4.4037 2.3988 4.4037 4.7973 0 2.3988-1.9571 4.7977-4.4037 4.7977H55.5593v-9.595Z"></path>
  <defs>
    <linearGradient id="a" x1="3570.42" x2="6460.28" y1="1063.08" y2="5969.8" gradientUnits="userSpaceOnUse">
      <stop stop-color="#534c448c"></stop>
      <stop offset="1" stop-color="#534c44"></stop>
    </linearGradient>
  </defs>
</svg>