<svg xmlns="http://www.w3.org/2000/svg" x="0px" y="0px" width="128" height="128" viewBox="0,0,256,256">
<g fill="#534c44" fill-rule="nonzero" stroke="none" stroke-width="1" stroke-linecap="butt" stroke-linejoin="miter" stroke-miterlimit="10" stroke-dasharray="" stroke-dashoffset="0" font-family="none" font-weight="none" font-size="none" text-anchor="none" style="mix-blend-mode: normal"><g transform="scale(4,4)"><path d="M32.25,6.94922c-4.58,-0.05 -9.18039,0.24109 -13.65039,1.12109c-2.22,0.45 -4.42898,1.03992 -6.45898,1.91992c-1.01,0.44 -1.98125,0.95961 -2.78125,1.59961c-0.8,0.63 -1.36937,1.40938 -1.35937,2.10938c-0.01,0.7 0.55937,1.48133 1.35938,2.11133c0.8,0.64 1.77125,1.15961 2.78125,1.59961c2.03,0.88 4.23898,1.46992 6.45898,1.91992c4.47,0.88 9.07039,1.16914 13.65039,1.11914c4.58,-0.07 9.15031,-0.50898 13.57031,-1.45898c2.21,-0.48 4.38914,-1.0907 6.36914,-1.9707c0.97,-0.44 1.92039,-0.96031 2.65039,-1.57031c0.76,-0.6 1.19016,-1.3 1.16016,-1.75c0.03,-0.45 -0.40016,-1.15 -1.16016,-1.75c-0.73,-0.61 -1.68039,-1.12836 -2.65039,-1.56836c-1.98,-0.88 -4.15914,-1.4907 -6.36914,-1.9707c-4.42,-0.95 -8.99031,-1.39094 -13.57031,-1.46094zM8.13086,17.42969l3.33008,11.09961c0.73,0.47 1.48977,0.89125 2.25976,1.28125c1.85,0.93 3.80836,1.64851 5.81836,2.22852c2.02,0.52 4.08188,0.94016 6.17188,1.16016c1.04,0.15 2.08867,0.17148 3.13867,0.27148c1.05,0.04 2.10039,0.03859 3.15039,0.05859c1.05,-0.04 2.10039,-0.05891 3.15039,-0.12891c1.04,-0.11 2.08891,-0.15031 3.12891,-0.32031c2.07,-0.27 4.11133,-0.7193 6.11133,-1.2793c1.98,-0.61 3.90875,-1.36031 5.71875,-2.32031c0.9,-0.48 1.80086,-1.01961 2.63086,-1.59961l2.7793,-9.29102c-0.71,0.43 -1.43039,0.77961 -2.15039,1.09961c-2.28,0.99 -4.61899,1.60984 -6.95898,2.08984c-4.7,0.92 -9.44016,1.21992 -14.16016,1.16992c-4.72,-0.07 -9.43984,-0.50953 -14.08984,-1.51953c-2.32,-0.5 -4.62938,-1.13891 -6.85937,-2.12891c-1.09,-0.49 -2.16992,-1.06109 -3.16992,-1.87109zM9.10938,29.39063l3.16992,11.64844c0.62,0.44 1.26992,0.86023 1.91992,1.24023c1.75,1.01 3.62078,1.84094 5.55078,2.46094c2.417,0.758 4.91436,1.244 7.44336,1.5l-0.19336,-4.24023l23.53516,-0.63672c0.429,-0.292 0.84591,-0.59334 1.25391,-0.90234c0.04,-0.03 0.07133,-0.0618 0.11133,-0.0918l2.81055,-10.28906c-1.05,0.75 -2.15125,1.36922 -3.28125,1.94922c-2.02,1.02 -4.1293,1.80016 -6.2793,2.41016c-2.16,0.57 -4.35078,1.00023 -6.55078,1.24023c-1.09,0.16 -2.19883,0.19125 -3.29883,0.28125c-1.1,0.05 -2.20078,0.04836 -3.30078,0.06836c-1.1,-0.04 -2.20078,-0.06891 -3.30078,-0.12891c-1.09,-0.12 -2.19906,-0.16984 -3.28906,-0.33984c-2.19,-0.28 -4.36023,-0.76133 -6.49023,-1.36133c-2.12,-0.65 -4.19969,-1.46 -6.17969,-2.5c-1.26,-0.68 -2.49086,-1.40859 -3.63086,-2.30859zM10,42l3,11c0,0 3.23463,4.83922 14.76563,5.82422l-0.46289,-10.14844c-2.801,-0.314 -5.57767,-0.89564 -8.26367,-1.80664c-2.06,-0.71 -4.04969,-1.62977 -5.92969,-2.75977c-1.03,-0.64 -2.02898,-1.32937 -2.95898,-2.10937zM30,44v20h34v-20zM37.93555,48.18945c1.191,0 2.24126,0.23433 3.07227,0.86133l-0.58008,2.06836c-0.737,-0.612 -1.44181,-0.86133 -2.50781,-0.86133c-0.909,0 -1.53711,0.31383 -1.53711,0.79883c0,0.674 0.70548,1.01811 1.89648,1.66211c1.896,1.018 3.19727,1.97547 3.19727,3.73047c0.002,2.274 -1.47064,3.30859 -3.80664,3.30859c-1.144,0 -2.49197,-0.37741 -3.41797,-1.06641l0.7832,-1.95898c0.767,0.58 1.70927,1.00391 2.69727,1.00391c1.129,0 1.64648,-0.54853 1.64648,-1.39453c0,-0.752 -0.68998,-1.09869 -1.70898,-1.67969c-1.27,-0.721 -3.27734,-1.33039 -3.27734,-3.52539c0,-1.913 1.69297,-2.94727 3.54297,-2.94727zM47.57813,48.19141c2.65,0 4.5625,2.19358 4.5625,5.76758c0,1.787 -0.45428,3.22942 -1.23828,4.23242l0.83008,1.08203l-1.51953,1.20703l-0.78516,-1.11328c-0.532,0.252 -1.12791,0.39258 -1.75391,0.39258c-2.65,0 -4.65625,-2.14878 -4.65625,-5.80078c0,-3.574 1.94355,-5.76758 4.56055,-5.76758zM54.15234,48.3457h2.02344v9.26367h3.57031c0.001,0.001 0.00195,1.99219 0.00195,1.99219h-5.5957zM47.57813,50.17969c-1.504,0 -2.57031,1.25259 -2.57031,3.80859c0,2.54 1.14431,3.79297 2.57031,3.79297c0.219,0 0.42295,-0.03012 0.62695,-0.07812l-1.50586,-1.95898l1.50586,-1.2832l1.42578,2.03711c0.329,-0.612 0.51758,-1.45681 0.51758,-2.50781c0,-2.555 -0.92431,-3.81055 -2.57031,-3.81055z"></path></g></g>
</svg>