<svg xmlns="http://www.w3.org/2000/svg" fill="none" viewBox="0 0 100 100" id="Tableau-Icon--Streamline-Svg-Logos" height="100" width="100">
  <desc>
    Tableau Icon Streamline Icon: https://streamlinehq.com
  </desc>
  <path fill="#534c44" d="M48.443645833333335 6.471354166666668v4.452395833333334h-7.963645833333334v2.8958333333333335h7.963645833333334v8.868645833333334h3.113125v-8.868645833333334h8.162708333333335v-2.8958333333333335h-8.162708333333335V2.0370520833333337h-3.113125V6.471354166666668Z" stroke-width="1.0417"></path>
  <path fill="#534c44" d="M22.416770833333334 17.765104166666667v6.461458333333334H10.36275v4.054166666666667H22.416770833333334v13.121979166666668h4.4705208333333335V28.280729166666667h12.235104166666666v-4.054166666666667H26.88729166666667V11.30375h-4.4705208333333335v6.461354166666667Z" stroke-width="1.0417"></path>
  <path fill="#534c44" d="M72.93104166666667 17.765104166666667v6.461458333333334H60.876979166666665v4.253333333333333h12.0540625v12.922812500000001h4.651458333333333V28.479895833333334h12.0540625v-4.253333333333333H77.58250000000001V11.30375h-4.651458333333333v6.461354166666667Z" stroke-width="1.0417"></path>
  <path fill="#534c44" d="M47.284479166666664 39.77395833333333v7.2396875000000005h-13.411458333333334v5.393541666666668h13.411458333333334v14.479375000000001h5.4297916666666675V52.4071875h13.411458333333334v-5.393541666666668h-13.411458333333334V32.53427083333334h-5.4297916666666675v7.2396875000000005Z" stroke-width="1.0417"></path>
  <path fill="#534c44" d="M86.72364583333334 43.42958333333333v4.542916666666668h-8.162708333333335v3.6741666666666672h8.162708333333335v9.067708333333334h4.0722916666666675v-9.067708333333334h8.162708333333335v-3.6741666666666672h-8.162708333333335v-9.067708333333334h-4.0722916666666675v4.524791666666667Z" stroke-width="1.0417"></path>
  <path fill="#534c44" d="M9.0053125 43.8284375v4.343854166666667H1.0416666666666667v3.0768750000000002h7.963645833333334v8.687604166666667h3.1130208333333336v-8.687604166666667l8.1628125 -0.28958333333333336v-2.787291666666667h-8.1628125v-8.687604166666667H9.0053125v4.34375Z" stroke-width="1.0417"></path>
  <path fill="#534c44" d="M22.416770833333334 64.28v6.461458333333334H10.36275v4.253229166666667H22.416770833333334v12.922916666666667h4.6515625v-12.922916666666667h12.0540625v-4.253229166666667H27.068333333333335V57.818645833333335h-4.6515625v6.461354166666667Z" stroke-width="1.0417"></path>
  <path fill="#534c44" d="M72.93104166666667 64.28v6.461458333333334H60.876979166666665v4.054166666666667h12.0540625v13.121979166666668h4.651458333333333V74.795625h12.0540625v-4.054166666666667H77.58250000000001V57.818645833333335h-4.651458333333333v6.461354166666667Z" stroke-width="1.0417"></path>
  <path fill="#534c44" d="M48.062916666666666 80.69541666666667v4.524791666666667h-8.162708333333335v3.6741666666666672h8.162708333333335v9.067708333333334h4.072395833333333v-9.067708333333334h8.162708333333335v-3.6741666666666672h-8.162708333333335v-9.067708333333334h-4.072395833333333v4.542916666666668Z" stroke-width="1.0417"></path>
</svg>