<svg xmlns="http://www.w3.org/2000/svg" x="0px" y="0px" width="48" height="48" viewBox="0 0 512 512">
<path fill="#EF4823" d="M399.4,186.5c0.3-4.8,2.4-10.4,0.4-14.9c-0.7-1.7-0.6-3.2,0.1-4.3c-0.2-0.2-0.3-0.3-0.5-0.5c-1.3,3.3-3.1,6.3-5.1,9.3c-6.8,9.9-15.1,19.7-23.8,28c-8.3,7.9-17.7,15.1-28.7,18.6c-9.4,3-18.7,3.4-28.4,3c-0.3,0-0.6,0-0.9,0c-0.1,0.5-0.2,0.9-0.4,1.4c-3.1,6.7-5.9,14.7-4.6,22.2c1,6,3,13,1.2,19c-3.6,11.7-14.6,17.7-26.4,17.4c-10.8-0.3-20.6-4.5-31-6.7c-0.6-0.1-1.2-0.2-1.8-0.3c4.5,6.9,9.4,13.8,16.1,18.5c6.7,4.7,15.1,7,23.4,7.3c0.5-1.1,1.5-2,2.9-2.6c8.9-3.6,19.5-11.1,24.2-19.8c4.2-7.9,5.7-16.9,9.8-24.8c7-13.3,20.2-17.4,33.6-21.7c11.8-3.8,27.2-7.3,35.8-16.9c4.7-5.2,5.3-10.3,4.7-17C399.2,196.5,399,191.5,399.4,186.5z"></path><path fill="#EF4823" d="M296.2,241.9c0.9-5.8,2.4-11.5,4.6-16.9c-4.6-0.1-9.1-0.2-13.7,0c-4.4,0.2-8.9,0.4-13.2,1.2c-1.3,0.3-2.7,0.6-3.9,1.2c-0.6,0.3-1.7,1.5-0.9,0.3c-1.3,2.2-3.5,3-5.6,2.8c-0.5,0.2-1.2,0.4-1.8,0.4c-6.4,0.4-12-1.9-15.1-7.7c-1.6-3-2.5-6.4-4.4-9.2c-1-0.3-2-1-2.9-2.1c-3.7-5.2-8.4-2-12.9,0.6c-5.4,3.1-11.2,6.9-17.6,7.7c-6.3,0.7-12.2-1.1-17.7-4.2c-11.5-6.4-19.5-17.8-32.7-20.7c-5.2-1.1-10.3-2.3-15.3-3.7c-1.9,1.8-5,2.4-7.2,0.4c-0.3,0.1-0.6,0.1-1.1,0.3c-1.8,0.7-3.4,1.5-5,2.5c-5.7,3.6-13.6,8.9-16.3,15.3c-2.9,7,10.7,18,15.9,22.2c9.6,7.9,19.1,17,29.9,23.2c13.2,7.7,27.9,10.7,43,10.7c14.9,0,30.1-1.6,44.9,0.7c10.3,1.6,20.1,5.6,30.5,7.1c10.1,1.4,22-1.8,20.5-14.4C297.3,253.9,295.3,247.9,296.2,241.9z"></path><path fill="#F6851F" d="M400.7,106.7c-0.3-5.5-3.2-9.9-8.6-13.8c-7.3-5.3-16.2-8.6-24.8-10.7c-11-2.8-22-4.3-32.8-8.2c-7.2-2.6-15.3-6.8-23.1-6.2c-3.6,0.3-7.1,1.1-10.5,2.2c2.6,1.8,5.5,3.3,8.6,4.4c3.9,1.4,3.9,5.4,1.9,8c1.2,0.9,2.4,1.8,3.4,2.8c4.4,4.1,7.8,8.9,10.3,14.2c5.6-0.2,11.4,0.3,16.4,3c6.4,3.5,10.9,9,15.9,14.2c5.5,5.7,11,11.6,13.2,19.4c2.1,7.6-0.1,15.8-3.9,22.5c-4.3,7.7-10.1,14.9-17.4,19.9c-7.3,4.9-15.3,6.9-23.7,8.7c-8.9,1.9-16.5,5.3-24,10.3c-6.2,4.1-12.1,8.8-14.8,15.9c-0.1,0.2-0.2,0.5-0.3,0.7l0.8,0c10.9-0.2,21.8,0.9,32.8,0.7c11.9-0.1,22.8-3,32.6-10c9.7-6.9,17.5-15.9,24.9-25.2c4.1-5.1,8.8-10.1,11.4-16.1c2-4.6,2.3-9.2,2.2-14.1c-0.1-6.8,0.5-13.1,2.7-19.5c2-5.6,4.8-10.9,6.2-16.7c0.2-1,0.4-1.9,0.5-2.8C400.2,109.1,400.3,107.8,400.7,106.7z"></path><path fill="#EF4823" d="M258.1 83.8c-6.3.1-12.2 2.3-18.4 3-3.3.4-6.5.3-9.7 0 3.3 3.8 6.8 7.6 11 10.3 7.3 4.8 23.9 6.1 29.9-1.6C278 86.4 264.9 83.7 258.1 83.8zM352.3 127.1c-4.3-4.6-8.9-11.2-14.5-14.2-2.8-1.5-5.7-2.2-8.6-2.4.3 1.3.6 2.6.9 3.9 2.3 11 3.4 22.8 3.3 34.1 0 9.1-1 18.2-4.5 26.4 7.3-1.9 14.4-4.5 20-10.6 5-5.4 10.7-12.7 11.4-20.3C361 137.3 356.6 131.7 352.3 127.1zM343.2 287c-8 6.7-15 14.7-24.1 20.2-9.4 5.7-19.5 8.3-30.5 7.9-11.5-.4-23.3-3.6-32.2-11.1-7.2-6-12.4-13.8-17.6-21.5-1.1-.6-1.9-1.7-2.2-3.3 0-.1-.1-.1-.1-.2-.4-.6-.7-1.3-.8-2-9-.4-18.1.1-27.1.2-15.1.3-29.5-1.1-43.7-6.6-12.9-5-23.1-14-33.8-22.5-3.6-2.9-8.5-6.5-13.1-10.7-3.6 5.2-6.4 10.8-9.2 16.5-2.4 4.9-5.2 9.7-7 14.9-2.5 7.2-.7 11.6 7 13.7 9.5 2.6 19.7 4.7 26.2 12.7.3.4.6.7.8 1.1.1 0 .2 0 .3 0 8.3.1 15.6 2.8 23.4 5.4 6.3 2.1 12.1 2.2 18.7 1.8 10.6-.7 25.7-3.2 33.9 5.4 3.8 4 5.1 10.5 9.3 13.9 6.2 5 14.7 1.6 21.7 3.5 5.3 1.4 9.9 4.3 14.6 7.3 2.7 1.7 9 6.4 11.2 6.2 4.2-.5 6.3 3.2 5.8 6.5 2.5.1 5 .1 7.5.2 13.4.2 27.1-.7 39.4-6.6 12.3-5.9 19.1-14.4 21.8-27.7 2-10.1 3-20.3 6.4-30.1C347.4 283.7 345.3 285.3 343.2 287z"></path><path fill="#EF4823" d="M282.5 97.4c-6 12.5-20.5 15.6-33.2 13.7-7.3-1.1-13.7-3.6-19.2-8.6-3.2-2.9-6-6.1-8.9-9.4-.5-.5-.9-1.1-1.4-1.6-.1 1.6-.2 3.2-.5 4.6-1.4 6-4.5 11.7-7.1 17.2-4.8 10.1-6.4 20.5-7.2 31.6-1.1 15.3-.3 35.5 12 46.3 2.6-2.1 6.9-1.9 8.4 1.1 1.5.7 2.5 2.1 2.6 4.3l.1 2.8c1.4-.5 2.9-1 4.4-1.2-.4-1.8-.6-3.7-.5-5.6.3-10.7 6.3-21.3 13-29.4 9.2-11.1 17.9-22.2 25.6-34.5 3.3-5.3 7.8-10.9 9.7-16.9 1.1-3.3 1.5-6.9 2.1-10.4.3-1.8.6-3.8 1-5.8C283 96.2 282.8 96.8 282.5 97.4zM322.3 143.7c-.5-9.7-1-20-3.5-29.4-.4-1.6-.9-3.2-1.5-4.8-1.4-1.2-2.1-3.2-2-5-2.7-5.8-6.5-10.9-12.2-14.2-1.4-.8-4.7-2.5-5.6-1.5-1.7 1.9-2.5 4.4-3.1 6.9-1.7 7.1-2.1 14.7-4.7 21.6-2 5.1-5.6 9.9-8.5 14.6-3.4 5.6-6.9 11.1-10.7 16.5-3.8 5.5-7.8 10.9-12.2 16-3 3.5-6.2 6.9-8.8 10.8-4.2 6.5-10.2 17.3-4.6 24.5.8 1 1.1 2 1.1 2.9 4.3 3 6.5 7.6 8.5 12.3 1.4 3.5 1.9 5.4 5.8 5.1.4 0 .7 0 1.1 0 4.1-3.7 10.3-5 16.2-5.5-1.3-1.4-1.9-3.5-1-5.8 4.8-12.6 17.6-20.4 28.9-26.5 2.9-1.6 6-2.7 9.1-3.7.1-.9.4-1.9 1.1-2.8C322.6 166.8 322.9 154.4 322.3 143.7zM410.6 184.5c-.5 5.3-.5 10.6.1 16 .9 7.8 0 15.1-4.5 21.7-8.2 12-23.8 17.3-37.1 21.6-7 2.3-14.1 4.3-20.9 7.2-7 3-11.4 7.2-14.3 14.4-3.4 8.6-5.4 17.5-10.8 25 .5-.4 1-.9 1.5-1.3 7.2-6.4 14-13 22.2-18.2 8-5.1 16.3-9.6 24.5-14.3 14.8-8.5 33.1-18.5 40.2-35C416.2 210.6 415.3 196.6 410.6 184.5z"></path><path fill="#F6851F" d="M256.1,345.6c-4.6-2.9-9.4-6.6-14.6-8.3c-3.1-1-7.2-0.4-10.4-0.6c-3.7-0.2-7.5-0.5-11-1.9c-5.9-2.5-9.4-6.9-12.3-12.5c-2.8-5.3-5.1-7.7-11.2-8.3c-6.2-0.5-12.5,0.2-18.8,0.5c-6.3,0.4-12.5,0.4-18.6-1.4c-4.9-1.5-9.8-3.6-14.9-4.8c0.4,0.5,0.9,1,1.4,1.4c4.3,3.9,9,7.2,14.1,9.8c24.8,12.9,52,25.7,80.6,25.7C245.6,345.3,250.9,345.5,256.1,345.6C256.2,345.6,256.1,345.6,256.1,345.6z"></path><path fill="#3AB37C" d="M278.5,421c-4.3,1.7-8.8,3.4-13.4,3.8c-0.1,1.4-0.2,2.8-0.3,4.2c-0.1,5.1-0.1,10.2,0.1,15.4c0.2,7.1,0.7,14.3,0.9,21.4c4,2,9,1.6,13.1-0.2v-44.7C278.7,421,278.6,421,278.5,421z"></path><path fill="#EF4823" d="M418.2 336.8c-10.3 4.4-22.5 5.8-33.5 3.8-6.9-1.3-14.6-5.1-21.5-4.8-6.6.3-12.7 2.5-19 4.3-1.2.3-2.2.3-3.2 0-9.4 9-22.6 14-35.4 16-13.3 2.1-26.8 1.3-40.3.7-14.1-.7-28.4.3-42.4-1.9-13.7-2.2-27-6.6-39.8-12-12.4-5.3-25.5-10.8-36.7-18.5-2.7-1.9-5.3-3.9-7.7-6.1-5.5 3.3-12.5 2.2-18.6.4-3.3-1-6.6-2.1-9.8-3.4-6.7 1.2-15.7 2.2-19.3 7.5-5 7.2 9.4 14.4 13.6 18.1 9.3 8.4 17.8 18.1 25.8 27.6 4 4.8 7.3 9.5 8.8 15.5 1.2 4.5 1.7 11 4.8 14.7 6.5 7.8 18.1 9.6 26.4 15 4.5 3 14.8 15.3 19.4 7.2 3.2-5.7 7.1-16.2 15.4-15.9 6.9.3 12.3 3.5 17.8 7 1.3-10.8 1.3-21.8 10.2-29.7 1.7-1.5 5.1-1.3 6.7.3 5.7 5.8 8.9 13.2 13 20.1 2 3.3 4 7.2 7.1 9.6.4.3.8.6 1.2.8 1.1-.1 2.1.1 3 .7 1.6 0 3.2-.5 5-1.1 10.6-3.7 20.9-7.7 32.3-8.4 10.4-.7 21.1 1 31.4-.3 5.8-.8 7.5-4.1 9.6-9.1 1.6-3.8 3.9-7.8 6.8-10.9 6.6-7 15.3-11 24.1-14.6 9.8-4 19.6-8.3 27.8-15.2 6.5-5.4 11-12.3 17.5-17.4C418.4 336.8 418.3 336.8 418.2 336.8zM463.5 206.5c-2.4-6.5-4.5-13.3-4.8-20.3-.3-7 .6-14 1.3-21 1-10.7 3.3-27.1-5.7-35.3-6.4-5.9-15.3-7.5-23.6-9-6.8-1.3-13.6-2.4-20.2-4.6-2.7 9.1-8.1 17.5-8.5 27-.2 3.6.1 7.3 0 10.9.1.1.2.1.3.2 9.9 7.6 16.6 19.2 19.9 31.1 2.7 9.9 4.5 21.3 2.2 31.5-7 31.3-39.4 43.5-65.4 59 2.1 1.3 3.4 3.9 2.1 6.8-6 13.8-4.6 30-10.7 43.7 3.3-.9 6.6-1.6 10-1.8 6.9-.3 12.9 1.8 19.5 3.4 11.8 2.9 24.5 3.2 35.7-2.3 9-4.4 15.9-12.2 20.6-20.9 5.6-10.3 7.8-22.2 14.9-31.7 4-5.3 8.7-10 13.2-15 4-4.5 8.5-9 9.5-15.2C475.9 230.5 467.8 217.9 463.5 206.5zM123.8 299.7c-8.1-6.1-19.5-4.9-27.6-11.1-7.6-5.9-7.8-14.9-4.8-23.4 4.3-12.3 11.1-24.8 18.6-35.5.1-.1.1-.1.2-.2-7.3-8.6-11.5-18.6-4.1-28.3 3-4 11.2-12.3 19.4-17.1-1.1-.7-2.2-1.4-3.3-2.2-10.1-7.2-18.8-17.3-23.2-29-1.5-4-2.4-7.9-2.9-11.7-5.8 9.7-7.3 20.5-6.3 32.2.6 6.9 1.5 14 .5 20.9-.8 5.1-2.6 9.8-4.6 14.5-3.7 8.6-8 17.2-10.7 26.2-2.2 7.3-5.1 17.3.3 23.8 2.1 2.6 1.3 5.3-.7 7 .6 1.5 1.1 3.1 1.6 4.7 2.7 9.8 7.5 17.4 16 22.9 6.4 4.1 13.3 7.7 20.3 10.6.6.1 1.2.4 1.7.7.4.2.8.3 1.1.5 4 1.5 8 3 12.2 3.6 1.2.2 2.4.4 3.6.3C128.9 305.9 127 302.1 123.8 299.7z"></path><path fill="#F6851F" d="M199.7,200.8c-7.8-4.7-13.1-12.1-19.2-18.6c-7.3-7.9-15-15.5-22.8-23c-6.4-6.2-13.6-12-19-19.2c-8.9-12-11.2-29.7,0.5-40.8c8.6-8.1,20.7-10.4,31.8-13.5c0-0.4,0.1-0.7,0.1-1c-18.4,0.8-37.9,8.5-50.9,21.4c-6.9,6.9-12.8,15.4-13.7,25.4c-1.1,12.2,4.3,24.2,12.4,33.1c8.6,9.6,20.5,15.8,33.1,18.3c6.2,1.2,13.4,2,19,5.1c5.4,3,10,6.9,14.7,10.8c4.6,3.9,10.3,8.9,16.3,10.2c5.3,1.1,9.6-0.8,14.1-3.3C210.4,205.3,204.9,203.9,199.7,200.8z"></path><path fill="#EF4823" d="M84.9 116.8c-11.2 7.1-14.9 20.9-14.2 33.6.4 7 1.6 14-.3 20.9-1.7 6.4-4.9 12-7 18.2-4.5 13.5-7.8 29.1-4.1 43.3.7 2.8 1.7 5.5 2.9 8.1.3-1.4.6-2.7.9-4 2.9-10.7 7.4-20.7 11.9-30.8 2.4-5.5 4.8-11.1 4.8-17.3 0-7.7-1.4-15.3-1.3-23 .3-14.1 4.5-26.9 13.6-37.7 1.3-1.6 3-2.1 4.6-1.9 1-5.1 2.9-9.9 5.5-14.4C96.2 113.1 90 113.6 84.9 116.8zM193.9 147.9c.3-6.8.8-13.8 2-20.6-2-1-3.5-2.9-3.3-5.6.4-6.2-6.8-11.3-10.7-15-3.1-3-6.5-6.4-8.7-10.3-8.9 2.3-19 4.2-25.9 10.2-10.3 9-3.5 23.7 4.4 31.7 11.8 12 24.5 23.1 36 35.5 4.3 4.7 8.4 10.1 13.3 14.3C194.6 176.2 193.3 161.3 193.9 147.9zM288.9 74.3c-3.2-.3-5.2-2.8-5.3-5.4-5-5.5-9.7-11.3-15.5-16.2-7.2-6-15.7-9.1-25.1-7.4-11.3 2-20.8 9.3-30.1 15.6-7.7 5.2-38.6 17.2-29.6 30.8 5 7.6 13.2 12.7 17.5 20.2 2.8-6 6.9-12.3 8-18.8.9-5.3 0-11.2 2.5-16.1 1.6-3.2 5-3.6 7.5-2.3 1.3-.8 3-1.1 4.8-.4 14.3 5.3 28.3-3.6 42.9-.6 9.4 1.9 18.5 8.6 17.7 18.1 1.2-4.5 3.1-8.7 6.6-11.5 1-.8 2-1.4 3-1.8C292 77.1 290.4 75.8 288.9 74.3z"></path><path d="M481.4,221.4c-4.9-13.1-11.6-25.4-11.7-39.7c-0.1-14.9,4.4-29.6,0.7-44.5c-6.9-27.8-36.8-23.8-58.3-32c-0.6-7.4-4.7-13.7-10.3-18.7c-11.3-10.2-28.1-14.9-42.8-17.3c-12-1.9-23-6.7-34.5-10.3c-11.6-3.6-22.1-1.2-32.8,3c-6.8-7.2-12.8-15.4-21-21c-8.6-5.8-18.5-7.9-28.7-6.5c-12.1,1.6-22.6,8.9-32.5,15.6c-10.2,6.9-25.8,13-33.7,23.6c0,0-0.1,0-0.1,0c-20.2-0.8-43.4,7.5-59.6,21.6c-2.5-1.6-6.4-1.5-8.4,1.8c-2.5,4.1-8.8,4.3-13,4.9c-5.7,0.8-11.1,3.1-16,6c-10.7,6.2-16.1,18.2-18.1,30c-1.2,6.8-0.8,13.8-0.1,20.7c0.7,7.1-1.2,13.6-4.3,19.9c-6.1,12.5-8.9,27.6-9.2,41.4c-0.2,14.4,5.1,27.7,12.4,39.9c1.7,2.9,3.4,5.7,4.8,8.8c1.3,2.7,1.7,5.9,2.5,8.8c1.8,6,4.8,11.7,8.9,16.5c5.2,6,12,10,18.9,13.8c0.1,0.1,0.2,0.1,0.3,0.2c-3.5,1.2-6.8,2.8-9.6,5.2c-8.6,7.5-7,18.2,0.1,25.9c3.2,3.5,7.4,6,11,9c5.4,4.5,10.1,9.8,14.8,15.1c4.6,5.2,9.5,10.2,13.7,15.8c4.1,5.4,4.8,11.9,6.6,18.2c3.3,11.5,13.4,16.6,23.6,21.1c5,2.2,9.5,4.6,13.7,8c4.1,3.3,8.5,7.1,13.8,8.4c10.9,2.6,16-6.3,20.3-14.6c2.4-4.6,4.6-4.1,8.9-1.9c4.6,2.2,8.6,5.5,12.9,8.1c3.3,2,7-0.9,7.8-4c1.4-5.3,1.6-10.8,2.1-16.2c0.3-3,0.7-6.8,1.9-9.9c5.5,8.6,9.7,21.1,17.9,26.4c-0.3,2.3-0.3,4.6-0.4,6.6c-0.4,8.2,0,16.5,0.4,24.7c0.1,3.6,0.3,7.1,0.5,10.7c0.1,2.7-0.4,6.7,2,8.5c9,6.8,21.4,6.5,30.7,0.4c2.2-1.4,2.7-3.6,2.2-5.6c0.1-0.4,0.2-0.9,0.2-1.4v-49c0,0,0,0,0-0.1c1.8-0.5,3.6-0.9,5.4-1.2c11.8-2.2,23.8-0.5,35.7-1c11-0.4,17.3-5.7,21.5-15.6c4-9.5,11.9-14.3,20.9-18.2c9.8-4.3,19.5-8.2,28.6-14.1c5.2-3.4,9.9-7.5,13.9-12.2c3.6-4.3,7.3-9.2,12.5-11.7c2.7-1.3,4.4-4.1,3.2-7.1c-0.8-2-1.7-3.9-3-5.5c5.3-4,9.9-9,13.6-14.5c2.9-4.3,5.3-8.8,7.5-13.6c2.5-5.6,4-11.6,6.7-17.1c5.8-11.8,17.9-19,24.4-30.3C487,244.5,485.6,232.7,481.4,221.4z M410.7,200.5c-0.6-5.3-0.6-10.6-0.1-16c4.7,12.1,5.7,26.1,1,37c-7.1,16.5-25.4,26.5-40.2,35c-8.2,4.7-16.5,9.2-24.5,14.3c-8.2,5.2-15,11.8-22.2,18.2c-0.5,0.4-1,0.9-1.5,1.3c5.4-7.5,7.4-16.4,10.8-25c2.9-7.3,7.3-11.4,14.3-14.4c6.8-2.9,13.9-4.9,20.9-7.2c13.2-4.3,28.8-9.5,37.1-21.6C410.7,215.5,411.6,208.3,410.7,200.5z M268.8,339.8c-2.2,0.3-8.5-4.5-11.2-6.2c-4.6-2.9-9.2-5.8-14.6-7.3c-7.1-1.9-15.5,1.5-21.7-3.5c-4.2-3.4-5.5-9.9-9.3-13.9c-8.2-8.6-23.3-6.1-33.9-5.4c-6.6,0.4-12.3,0.3-18.7-1.8c-7.8-2.6-15.1-5.3-23.4-5.4c-0.1,0-0.2,0-0.3,0c-0.3-0.4-0.5-0.7-0.8-1.1c-6.5-8-16.7-10.1-26.2-12.7c-7.7-2.1-9.5-6.6-7-13.7c1.8-5.2,4.6-10,7-14.9c2.8-5.6,5.7-11.3,9.2-16.5c4.7,4.2,9.5,7.8,13.1,10.7c10.7,8.5,20.9,17.5,33.8,22.5c14.2,5.5,28.6,6.8,43.7,6.6c9.1-0.2,18.1-0.6,27.1-0.2c0.1,0.7,0.4,1.4,0.8,2c0,0.1,0.1,0.1,0.1,0.2c0.3,1.5,1.1,2.6,2.2,3.3c5.2,7.7,10.4,15.5,17.6,21.5c9,7.6,20.7,10.7,32.2,11.1c11,0.4,21.1-2.2,30.5-7.9c9-5.5,16-13.5,24.1-20.2c2-1.7,4.2-3.3,6.4-4.8c-3.4,9.7-4.3,20-6.4,30.1c-2.7,13.3-9.5,21.8-21.8,27.7c-12.3,5.8-26,6.7-39.4,6.6c-2.5,0-5-0.1-7.5-0.2C275.1,343,273.1,339.3,268.8,339.8z M256.2,345.7c-5.3-0.2-10.5-0.3-15.8-0.3c-28.6-0.1-55.8-12.8-80.6-25.7c-5.1-2.7-9.9-5.9-14.1-9.8c-0.5-0.5-1-0.9-1.4-1.4c5.1,1.2,10,3.3,14.9,4.8c6.1,1.9,12.3,1.8,18.6,1.4c6.2-0.3,12.5-1,18.8-0.5c6.1,0.5,8.4,3,11.2,8.3c3,5.5,6.4,10,12.3,12.5c3.5,1.4,7.3,1.8,11,1.9c3.2,0.2,7.3-0.4,10.4,0.6C246.7,339.1,251.5,342.7,256.2,345.7C256.1,345.6,256.2,345.6,256.2,345.7z M230.1,102.5c5.5,5.1,11.9,7.6,19.2,8.6c12.7,1.8,27.2-1.3,33.2-13.7c0.3-0.6,0.5-1.2,0.8-1.9c-0.4,2-0.7,4-1,5.8c-0.6,3.4-1,7-2.1,10.4c-1.9,6-6.4,11.6-9.7,16.9c-7.6,12.3-16.4,23.4-25.6,34.5c-6.7,8.1-12.6,18.7-13,29.4c-0.1,1.9,0.1,3.8,0.5,5.6c-1.5,0.3-3,0.7-4.4,1.2l-0.1-2.8c0-2.2-1.1-3.6-2.6-4.3c-1.5-3-5.8-3.2-8.4-1.1c-12.3-10.8-13.1-31-12-46.3c0.8-11.1,2.4-21.5,7.2-31.6c2.6-5.5,5.7-11.2,7.1-17.2c0.3-1.4,0.4-3,0.5-4.6c0.5,0.5,1,1.1,1.4,1.6C224,96.4,226.9,99.6,230.1,102.5z M230,86.8c3.2,0.3,6.4,0.4,9.7,0c6.2-0.7,12.1-2.9,18.4-3c6.8-0.1,19.9,2.6,12.8,11.7c-6,7.7-22.5,6.4-29.9,1.6C236.8,94.4,233.3,90.6,230,86.8z M226.3,212.5c4.5-2.6,9.2-5.8,12.9-0.6c0.8,1.1,1.8,1.8,2.9,2.1c1.9,2.8,2.8,6.2,4.4,9.2c3.1,5.8,8.6,8.2,15.1,7.7c0.7,0,1.3-0.2,1.8-0.4c2.1,0.2,4.3-0.6,5.6-2.8c-0.7,1.2,0.3,0,0.9-0.3c1.3-0.6,2.6-0.9,3.9-1.2c4.3-0.9,8.8-1.1,13.2-1.2c4.6-0.2,9.1-0.1,13.7,0c-2.2,5.4-3.7,11.1-4.6,16.9c-0.9,5.9,1.1,11.9,1.8,17.8c1.5,12.5-10.4,15.8-20.5,14.4c-10.4-1.4-20.2-5.5-30.5-7.1c-14.8-2.3-30-0.7-44.9-0.7c-15.1,0-29.9-3-43-10.7c-10.8-6.3-20.3-15.3-29.9-23.2c-5.2-4.3-18.8-15.3-15.9-22.2c2.7-6.5,10.7-11.8,16.3-15.3c1.6-1,3.3-1.8,5-2.5c0.5-0.2,0.8-0.3,1.1-0.3c2.3,1.9,5.3,1.3,7.2-0.4c5,1.5,10.1,2.6,15.3,3.7c13.3,2.9,21.3,14.3,32.7,20.7c5.5,3.1,11.3,4.9,17.7,4.2C215.1,219.4,220.9,215.6,226.3,212.5z M307.4,249c-1.3-7.4,1.5-15.4,4.6-22.2c0.2-0.5,0.4-0.9,0.4-1.4c0.3,0,0.6,0,0.9,0c9.7,0.4,19.1,0,28.4-3c11-3.5,20.4-10.7,28.7-18.6c8.7-8.3,17-18.1,23.8-28c2-3,3.8-6.1,5.1-9.3c0.2,0.2,0.3,0.3,0.5,0.5c-0.7,1.2-0.8,2.7-0.1,4.3c2,4.6-0.1,10.1-0.4,14.9c-0.4,5-0.2,10,0.3,15c0.7,6.7,0,11.8-4.7,17c-8.7,9.6-24,13.1-35.8,16.9c-13.4,4.3-26.6,8.4-33.6,21.7c-4.1,7.9-5.6,16.9-9.8,24.8c-4.7,8.7-15.2,16.2-24.2,19.8c-1.4,0.6-2.4,1.5-2.9,2.6c-8.3-0.2-16.8-2.5-23.4-7.3c-6.7-4.7-11.5-11.7-16.1-18.5c0.6,0.1,1.2,0.2,1.8,0.3c10.4,2.1,20.3,6.4,31,6.7c11.8,0.3,22.8-5.7,26.4-17.4C310.5,262.1,308.4,255,307.4,249z M311.4,67.9c7.8-0.6,15.9,3.6,23.1,6.2c10.8,3.9,21.8,5.4,32.8,8.2c8.7,2.2,17.5,5.5,24.8,10.7c5.4,3.9,8.3,8.3,8.6,13.8c-0.4,1.1-0.5,2.4-0.1,3.6c-0.1,0.9-0.3,1.9-0.5,2.8c-1.4,5.7-4.3,11.1-6.2,16.7c-2.3,6.5-2.8,12.7-2.7,19.5c0.1,4.9-0.2,9.6-2.2,14.1c-2.6,6-7.3,11-11.4,16.1c-7.4,9.2-15.3,18.2-24.9,25.2c-9.8,7-20.7,9.8-32.6,10c-10.9,0.1-21.8-1-32.8-0.7l-0.8,0c0.1-0.2,0.2-0.4,0.3-0.7c2.7-7.2,8.6-11.8,14.8-15.9c7.6-5,15.1-8.4,24-10.3c8.4-1.8,16.5-3.8,23.7-8.7c7.4-4.9,13.1-12.2,17.4-19.9c3.8-6.7,6-14.9,3.9-22.5c-2.2-7.8-7.7-13.7-13.2-19.4c-5-5.2-9.4-10.7-15.9-14.2c-5-2.7-10.8-3.2-16.4-3c-2.5-5.2-5.9-10-10.3-14.2c-1-1-2.2-1.9-3.4-2.8c2.1-2.6,2.1-6.6-1.9-8c-3.2-1.1-6-2.6-8.6-4.4C304.3,69,307.8,68.2,311.4,67.9z M330.1,114.4c-0.3-1.3-0.6-2.6-0.9-3.9c3,0.2,5.8,0.9,8.6,2.4c5.6,3,10.1,9.6,14.5,14.2c4.3,4.6,8.7,10.2,8.1,16.8c-0.7,7.6-6.4,14.9-11.4,20.3c-5.7,6.1-12.7,8.7-20,10.6c3.6-8.2,4.5-17.3,4.5-26.4C333.5,137.2,332.4,125.4,330.1,114.4z M297.6,88.7c0.9-1,4.3,0.8,5.6,1.5c5.6,3.3,9.5,8.4,12.2,14.2c-0.1,1.8,0.6,3.7,2,5c0.6,1.6,1,3.2,1.5,4.8c2.5,9.5,2.9,19.7,3.5,29.4c0.6,10.7,0.3,23.1-6.4,32c-0.7,0.9-1,1.9-1.1,2.8c-3.1,0.9-6.2,2.1-9.1,3.7c-11.3,6.1-24.2,13.9-28.9,26.5c-0.9,2.3-0.2,4.3,1,5.8c-6,0.5-12.1,1.8-16.2,5.5c-0.3,0-0.7,0-1.1,0c-3.9,0.3-4.4-1.6-5.8-5.1c-1.9-4.7-4.2-9.3-8.5-12.3c0-1-0.4-2-1.1-2.9c-5.6-7.2,0.4-18,4.6-24.5c2.6-3.9,5.7-7.3,8.8-10.8c4.4-5.1,8.4-10.5,12.2-16c3.7-5.4,7.2-10.9,10.7-16.5c2.9-4.7,6.5-9.4,8.5-14.6c2.7-6.9,3.1-14.5,4.7-21.6C295.1,93.2,295.9,90.6,297.6,88.7z M212.9,60.9c9.3-6.3,18.7-13.6,30.1-15.6c9.4-1.7,17.9,1.4,25.1,7.4c5.8,4.8,10.5,10.7,15.5,16.2c0.1,2.6,2.1,5.1,5.3,5.4c1.5,1.5,3.2,2.9,4.9,4.2c-1,0.4-2.1,1-3,1.8c-3.5,2.8-5.4,7.1-6.6,11.5c0.9-9.5-8.3-16.2-17.7-18.1c-14.6-3-28.6,5.9-42.9,0.6c-1.8-0.7-3.5-0.4-4.8,0.4c-2.5-1.3-5.9-0.9-7.5,2.3c-2.4,4.9-1.6,10.8-2.5,16.1c-1.1,6.5-5.2,12.8-8,18.8c-4.2-7.4-12.4-12.5-17.5-20.2C174.3,78,205.2,66.1,212.9,60.9z M173.2,96.3c2.2,3.9,5.6,7.4,8.7,10.3c3.9,3.8,11.1,8.8,10.7,15c-0.2,2.7,1.4,4.7,3.3,5.6c-1.3,6.8-1.7,13.8-2,20.6c-0.6,13.4,0.8,28.3,7,40.2c-4.9-4.2-8.9-9.6-13.3-14.3c-11.4-12.4-24.2-23.5-36-35.5c-7.9-8-14.7-22.6-4.4-31.7C154.2,100.5,164.3,98.6,173.2,96.3z M106.6,131.5c0.9-10,6.7-18.5,13.7-25.4c13-12.9,32.5-20.7,50.9-21.4c0,0.3-0.1,0.7-0.1,1c-11.1,3.1-23.2,5.3-31.8,13.5c-11.7,11.1-9.4,28.9-0.5,40.8c5.3,7.2,12.5,13,19,19.2c7.8,7.5,15.5,15,22.8,23c6.1,6.6,11.4,13.9,19.2,18.6c5.1,3.1,10.7,4.6,16.4,4.9c-4.4,2.5-8.8,4.4-14.1,3.3c-6.1-1.3-11.7-6.3-16.3-10.2c-4.7-3.9-9.3-7.8-14.7-10.8c-5.6-3.1-12.8-3.9-19-5.1c-12.6-2.5-24.4-8.7-33.1-18.3C110.9,155.6,105.5,143.7,106.6,131.5z M63,236.9c-0.3,1.3-0.7,2.6-0.9,4c-1.1-2.6-2.1-5.3-2.9-8.1c-3.7-14.1-0.4-29.8,4.1-43.3c2.1-6.2,5.3-11.8,7-18.2c1.8-6.9,0.7-13.9,0.3-20.9c-0.7-12.7,2.9-26.5,14.2-33.6c5.1-3.2,11.4-3.8,17.2-5c-2.6,4.5-4.5,9.3-5.5,14.4c-1.6-0.2-3.3,0.3-4.6,1.9c-9.1,10.9-13.3,23.6-13.6,37.7c-0.2,7.7,1.3,15.3,1.3,23c0,6.2-2.3,11.7-4.8,17.3C70.5,216.1,65.9,226.1,63,236.9z M92.1,293.6c-8.5-5.5-13.3-13.2-16-22.9c-0.4-1.6-1-3.2-1.6-4.7c2-1.6,2.9-4.4,0.7-7c-5.5-6.6-2.5-16.5-0.3-23.8c2.7-9,7-17.6,10.7-26.2c2-4.7,3.8-9.5,4.6-14.5c1-6.9,0.1-14-0.5-20.9c-1-11.7,0.5-22.5,6.3-32.2c0.5,3.8,1.4,7.7,2.9,11.7c4.4,11.7,13.1,21.8,23.2,29c1.1,0.8,2.2,1.5,3.3,2.2c-8.3,4.7-16.4,13-19.4,17.1c-7.4,9.8-3.2,19.7,4.1,28.3c-0.1,0.1-0.1,0.1-0.2,0.2c-7.5,10.6-14.3,23.2-18.6,35.5c-3,8.5-2.8,17.5,4.8,23.4c8.1,6.2,19.5,5.1,27.6,11.1c3.2,2.4,5.1,6.1,7.2,9.5c-1.2,0.1-2.4-0.1-3.6-0.3c-4.2-0.6-8.3-2.1-12.2-3.6c-0.4-0.1-0.8-0.3-1.1-0.5c-0.5-0.3-1.1-0.6-1.7-0.7C105.3,301.2,98.4,297.7,92.1,293.6z M278.8,465.6c-4.1,1.8-9.1,2.2-13.1,0.2c-0.1-7.1-0.6-14.3-0.9-21.4c-0.2-5.1-0.2-10.2-0.1-15.4c0-1.4,0.1-2.8,0.3-4.2c4.6-0.4,9.1-2.2,13.4-3.8c0.1,0,0.2-0.1,0.3-0.1V465.6z M401,354.2c-8.2,6.8-18,11.2-27.8,15.2c-8.8,3.6-17.4,7.6-24.1,14.6c-2.9,3.1-5.2,7-6.8,10.9c-2.2,5-3.8,8.3-9.6,9.1c-10.3,1.4-21-0.3-31.4,0.3c-11.4,0.7-21.6,4.7-32.3,8.4c-1.8,0.6-3.4,1.1-5,1.1c-0.8-0.5-1.8-0.8-3-0.7c-0.4-0.2-0.8-0.5-1.2-0.8c-3.1-2.5-5.1-6.3-7.1-9.6c-4.1-6.9-7.3-14.3-13-20.1c-1.6-1.6-5-1.8-6.7-0.3c-8.9,7.9-8.8,18.9-10.2,29.7c-5.4-3.5-10.9-6.8-17.8-7c-8.3-0.3-12.2,10.1-15.4,15.9c-4.5,8-14.9-4.3-19.4-7.2c-8.3-5.4-19.9-7.3-26.4-15c-3.1-3.7-3.6-10.2-4.8-14.7c-1.6-6.1-4.8-10.8-8.8-15.5c-8-9.6-16.5-19.3-25.8-27.6c-4.1-3.7-18.5-11-13.6-18.1c3.6-5.2,12.6-6.3,19.3-7.5c3.2,1.3,6.5,2.4,9.8,3.4c6.1,1.8,13.1,2.9,18.6-0.4c2.4,2.2,5,4.3,7.7,6.1c11.2,7.7,24.3,13.1,36.7,18.5c12.8,5.5,26.1,9.8,39.8,12c14,2.3,28.3,1.2,42.4,1.9c13.4,0.6,26.9,1.4,40.3-0.7c12.8-2,26-7,35.4-16c0.9,0.3,2,0.3,3.2,0c6.3-1.8,12.4-4,19-4.3c7-0.3,14.7,3.5,21.5,4.8c11,2.1,23.2,0.7,33.5-3.8c0.1,0,0.2,0,0.3,0.1C412,341.9,407.5,348.8,401,354.2z M473.8,243.1c-1,6.2-5.5,10.8-9.5,15.2c-4.4,5-9.2,9.6-13.2,15c-7.1,9.5-9.3,21.3-14.9,31.7c-4.7,8.7-11.6,16.5-20.6,20.9c-11.1,5.5-23.9,5.3-35.7,2.3c-6.6-1.6-12.7-3.7-19.5-3.4c-3.4,0.1-6.7,0.9-10,1.8c6.1-13.8,4.7-29.9,10.7-43.7c1.3-2.9,0-5.5-2.1-6.8c26-15.5,58.4-27.7,65.4-59c2.3-10.2,0.5-21.6-2.2-31.5c-3.3-11.9-10-23.5-19.9-31.1c-0.1-0.1-0.2-0.1-0.3-0.2c0.1-3.6-0.2-7.3,0-10.9c0.5-9.6,5.8-18,8.5-27c6.5,2.1,13.4,3.3,20.2,4.6c8.3,1.5,17.1,3.1,23.6,9c9.1,8.2,6.8,24.6,5.7,35.3c-0.7,7-1.6,14-1.3,21c0.3,6.9,2.4,13.8,4.8,20.3C467.8,217.9,475.9,230.5,473.8,243.1z"></path>
</svg>
